<svg width="41" height="41" viewBox="0 0 41 41" fill="none" xmlns="http://www.w3.org/2000/svg">
<path fill-rule="evenodd" clip-rule="evenodd" d="M29.2176 19.6042L20.4715 10.7865L11.7255 19.6042C12.9414 20.2565 13.7682 21.5398 13.7682 23.0162V30.9668H27.1749V23.0162C27.1749 21.5398 28.0017 20.2565 29.2176 19.6042ZM32.0808 19.0688C32.9946 19.9901 32.342 21.5565 31.0444 21.5565C30.2382 21.5565 29.5847 22.21 29.5847 23.0162V30.9668C29.5847 32.2978 28.5058 33.3767 27.1749 33.3767H13.7682C12.4373 33.3767 11.3584 32.2978 11.3584 30.9668V23.0162C11.3584 22.21 10.7048 21.5565 9.89867 21.5565C8.60107 21.5565 7.94851 19.9901 8.8623 19.0688L18.7606 9.08947C19.7033 8.13908 21.2398 8.13908 22.1825 9.08947L32.0808 19.0688Z" fill="#A6A6A6"/>
</svg>
