<svg width="38" height="38" viewBox="0 0 38 38" fill="none" xmlns="http://www.w3.org/2000/svg">
<path fill-rule="evenodd" clip-rule="evenodd" d="M19.1353 37.4381C29.4736 37.4381 37.8544 29.0573 37.8544 18.7191C37.8544 8.38081 29.4736 0 19.1353 0C8.79707 0 0.41626 8.38081 0.41626 18.7191C0.41626 29.0573 8.79707 37.4381 19.1353 37.4381ZM19.0928 26.7197C18.2644 26.7197 17.5929 26.0481 17.5929 25.2198V20.2201H12.5934C11.765 20.2201 11.0935 19.5486 11.0935 18.7202C11.0935 17.8919 11.765 17.2204 12.5934 17.2204H17.5929V12.2209C17.5929 11.3925 18.2644 10.721 19.0928 10.721C19.9212 10.721 20.5927 11.3925 20.5927 12.2209V17.2204H25.5923C26.4206 17.2204 27.0921 17.8919 27.0921 18.7202C27.0921 19.5486 26.4206 20.2201 25.5923 20.2201H20.5927V25.2198C20.5927 26.0481 19.9212 26.7197 19.0928 26.7197Z" fill="#EC6C3A"/>
</svg>
