<svg width="40" height="40" viewBox="0 0 40 40" fill="none" xmlns="http://www.w3.org/2000/svg">
<path fill-rule="evenodd" clip-rule="evenodd" d="M28.8503 29.9727C31.6005 27.5303 33.3334 23.9675 33.3334 20C33.3334 12.6362 27.3639 6.66669 20.0001 6.66669C12.6363 6.66669 6.66675 12.6362 6.66675 20C6.66675 23.9674 8.39955 27.5301 11.1496 29.9725C11.2707 30.0801 11.3938 30.1855 11.5188 30.2887C13.8236 32.1907 16.7784 33.3334 20.0001 33.3334C23.3964 33.3334 26.4961 32.0635 28.8503 29.9727ZM27.967 26.0448C29.2428 24.3659 30.0001 22.2714 30.0001 20C30.0001 14.4772 25.5229 10 20.0001 10C14.4772 10 10.0001 14.4772 10.0001 20C10.0001 22.2713 10.7573 24.3658 12.0331 26.0447C13.1025 23.8414 15.0589 22.1485 17.4382 21.4302C15.9779 20.5572 15.0001 18.9606 15.0001 17.1355C15.0001 14.3741 17.2387 12.1355 20.0001 12.1355C22.7615 12.1355 25.0001 14.3741 25.0001 17.1355C25.0001 18.9606 24.0223 20.5573 22.5619 21.4303C24.9412 22.1486 26.8976 23.8415 27.967 26.0448ZM25.3275 28.4644C24.6941 26.1156 22.5489 24.3871 20 24.3871C17.4511 24.3871 15.3059 26.1155 14.6726 28.4643C16.164 29.405 17.9213 29.9624 19.8064 29.9982C19.8708 29.9994 19.9354 30 20.0001 30C20.0797 30 20.1591 29.9991 20.2383 29.9972C22.1064 29.9536 23.8478 29.3976 25.3275 28.4644ZM20.0001 18.8022C20.9206 18.8022 21.6667 18.056 21.6667 17.1355C21.6667 16.2151 20.9206 15.4689 20.0001 15.4689C19.0796 15.4689 18.3334 16.2151 18.3334 17.1355C18.3334 18.056 19.0796 18.8022 20.0001 18.8022Z" fill="#A6A6A6"/>
</svg>
