<svg width="57" height="65" viewBox="0 0 57 65" fill="none" xmlns="http://www.w3.org/2000/svg">
<g clip-path="url(#clip0_3799_16804)">
<path d="M35.0423 61.9383C35.7794 60.4122 36.8303 59.5484 38.735 59.3339C38.486 59.3627 38.9423 57.3011 38.9927 57.1528C39.2751 56.3691 39.735 55.6614 40.3364 55.0849C40.9378 54.5085 41.6644 54.079 42.4594 53.8301C43.3714 53.5469 44.3321 53.4552 45.2811 53.5609C45.7683 53.611 46.25 53.704 46.7208 53.8387C46.8403 53.8733 47.7415 54.2476 47.6954 54.3829C47.7361 54.2583 47.7842 54.1362 47.8394 54.0173C48.6399 52.3588 50.7302 51.6634 52.8422 52.1903C53.0035 51.9024 53.1748 51.6389 53.3274 51.3453C56.008 46.2028 56.5349 40.2153 56.4759 34.4163C56.3895 25.9684 56.332 17.5723 56.332 9.13448C56.3392 4.32602 52.7472 0.130859 47.8279 0.130859C40.4439 0.130859 38.8027 6.19326 38.8027 9.1316V29.3199C38.8027 35.3665 38.9092 41.39 36.3409 44.0879C33.5609 47.0104 30.3188 47.3344 28.5466 47.366C26.7743 47.3344 23.5308 47.0104 20.7522 44.0879C18.1839 41.39 18.2904 35.3636 18.2904 29.3199V9.1316C18.2919 6.19326 16.6507 0.130859 9.26521 0.130859C4.35021 0.130859 0.751069 4.32602 0.751069 9.1316C0.751069 17.5709 0.697802 25.9655 0.607103 34.4134C0.552396 40.2124 1.07931 46.1999 3.75852 51.3424C8.64184 60.7117 18.217 63.9466 28.1377 64.115V64.1309C28.2817 64.1309 28.4112 64.1237 28.548 64.1222C28.6848 64.1208 28.8215 64.1309 28.9583 64.1309V64.115C30.8495 64.0864 32.7368 63.932 34.6075 63.6529C34.6403 63.0586 34.788 62.4764 35.0423 61.9383Z" fill="#EC6C3A"/>
<path opacity="0.4" d="M5.82288 44.1071C5.50865 44.1065 5.20455 43.9959 4.96339 43.7944C4.72223 43.593 4.55924 43.3134 4.50271 43.0043C3.99596 40.2316 3.92685 37.3508 3.85055 34.5651C3.83039 33.8352 3.81312 33.1096 3.78577 32.3912C3.65044 28.7344 3.60869 25.0187 3.66195 21.3476C3.70514 18.2653 3.81744 15.1412 3.99452 12.0647C4.12409 9.80439 4.32132 6.38665 7.0178 4.31066C7.30054 4.09169 7.65868 3.994 8.01345 4.03909C8.18911 4.06141 8.35865 4.11812 8.5124 4.20597C8.66615 4.29381 8.80108 4.41108 8.90951 4.55108C9.01793 4.69108 9.09772 4.85106 9.14432 5.0219C9.19092 5.19273 9.20341 5.37107 9.18108 5.54673C9.15876 5.72239 9.10205 5.89194 9.0142 6.04568C8.92635 6.19943 8.80908 6.33437 8.66909 6.44279C7.06675 7.66794 6.81337 9.87494 6.67804 12.2245C6.50384 15.2636 6.39011 18.3473 6.3498 21.3922C6.29653 25.0173 6.33972 28.6869 6.47361 32.2976C6.49952 33.0261 6.51824 33.7617 6.53839 34.5017C6.6075 37.1852 6.68236 39.9595 7.14737 42.5264C7.17916 42.7 7.17641 42.8783 7.13926 43.0509C7.10212 43.2235 7.03132 43.387 6.9309 43.5322C6.83048 43.6774 6.70242 43.8014 6.55405 43.8971C6.40567 43.9928 6.23989 44.0583 6.06618 44.0898C5.98582 44.1033 5.90435 44.1091 5.82288 44.1071Z" fill="white"/>
</g>
<defs>
<clipPath id="clip0_3799_16804">
<rect width="55.8818" height="64" fill="white" transform="translate(0.606812 0.130859)"/>
</clipPath>
</defs>
</svg>
